<svg width="310" height="461" viewBox="0 0 310 461" fill="none" xmlns="http://www.w3.org/2000/svg">
<path d="M81.5 305.5C81.5 305.5 59.5 310.5 53.5703 305.5C47.6406 300.5 43.5 289.5 45.0703 278.5C46.6406 267.5 65.5703 210 65.5703 210L72.5703 167C72.5703 167 2.5703 166.5 1.0703 150.5C-0.429695 134.5 22.5703 80.5 22.5703 80.5C22.5703 80.5 17.5703 79 20.0703 74.5C22.5703 70 46.5703 70 46.5703 70L48.5703 83.7411C55.592 83.8433 63.0377 83.264 72.5703 82L61.9252 112C61.9252 112 119.355 112 121.425 108.5L156.57 105C156.57 105 189.141 108.5 195.07 109.5C201 110.5 223.57 151 223.57 151L239.909 109.5C255.575 125.69 266.776 129.28 289.07 130.5C289.07 130.5 254.141 214 244.57 216C235 218 197.07 186.5 197.07 186.5V223C197.07 223 219.141 287 215.57 295.5C212 304 177.57 305.5 177.57 305.5C162.349 306.122 154.693 305.454 146.5 298C141.594 269.58 142.101 254.499 144.5 228L119.5 226C109.575 253.143 107.901 268.358 107 295.5C98.7384 300.182 92.7035 303.563 81.5 305.5Z" fill="white"/>
<path d="M22.5703 80.5C22.5703 80.5 -0.429695 134.5 1.0703 150.5C2.5703 166.5 72.5703 167 72.5703 167L65.5703 210C65.5703 210 46.6406 267.5 45.0703 278.5C43.5 289.5 47.6406 300.5 53.5703 305.5C59.5 310.5 81.5 305.5 81.5 305.5C92.7035 303.563 98.7384 300.182 107 295.5C107.901 268.358 109.575 253.143 119.5 226M22.5703 80.5C22.5703 80.5 17.5703 79 20.0703 74.5C22.5703 70 46.5703 70 46.5703 70L48.5703 83.7411M22.5703 80.5C32.4946 82.5376 40.2336 83.6198 48.5703 83.7411M121.425 108.5C119.355 112 61.9252 112 61.9252 112L72.5703 82C63.0377 83.264 55.592 83.8433 48.5703 83.7411M121.425 108.5L119.5 226M121.425 108.5L156.57 105M156.57 105C156.57 105 189.141 108.5 195.07 109.5C201 110.5 223.57 151 223.57 151L239.909 109.5C255.575 125.691 266.776 129.28 289.07 130.5C289.07 130.5 254.141 214 244.57 216C235 218 197.07 186.5 197.07 186.5V223C197.07 223 219.141 287 215.57 295.5C212 304 177.57 305.5 177.57 305.5C162.349 306.122 154.693 305.454 146.5 298C141.594 269.58 142.101 254.499 144.5 228M156.57 105L144.5 228M144.5 228L119.5 226" stroke="black"/>
<path d="M143.5 228.5C133.405 229.735 128.098 229.432 120 227C110.678 254.154 108.241 269.503 106.5 297L80 305.5L83 410L87.5 413H112L116 409C116.192 362.23 117.557 335.475 123 286.5L131.5 292.5L143.5 408L146 409L171 410L178.5 406.5L177 307C162.495 306.451 155.208 305.227 146.5 298.5C142.512 271.493 141.687 256.184 143.5 228.5Z" fill="black" stroke="#0B0101"/>
<path d="M113.525 428L85.525 430C83.3198 437.393 80.6682 440.695 71.525 444C59.5292 449.585 56.6954 453.12 57.025 460L87.525 458L91.025 452.5H105.025L107.025 455.5C107.025 455.5 119.023 458 121.525 454.5C124.026 451 117.97 432.628 113.525 428Z" fill="#EEAC25" stroke="#EEAC25"/>
<path d="M68 442.5L74 447.5" stroke="black"/>
<path d="M73 440.5C76.4103 441.786 78.0405 442.669 80.5 444.5" stroke="black"/>
<path d="M75 437C79.4159 437.177 81.5169 437.783 84.5 440" stroke="black"/>
<path d="M57 460C57 460 84 459 87 458C90 457 91.5 453 91.5 453H105.5L107 456.5C115.332 457.096 119.421 457.069 122.5 454.5" stroke="black"/>
<path d="M89 429V414H111V427.5L89 429Z" fill="white" stroke="white"/>
<path d="M88 413L88.5 429.5" stroke="black"/>
<path d="M112 413V428" stroke="black"/>
<path d="M144.975 424L172.975 426C175.18 433.393 177.832 436.695 186.975 440C198.971 445.585 201.805 449.12 201.475 456L170.975 454L167.475 448.5H153.475L151.475 451.5C151.475 451.5 139.477 454 136.975 450.5C134.474 447 140.53 428.628 144.975 424Z" fill="#EEAC25" stroke="#EEAC25"/>
<path d="M190.5 438.5L184.5 443.5" stroke="black"/>
<path d="M185.5 436.5C182.09 437.786 180.46 438.669 178 440.5" stroke="black"/>
<path d="M183.5 433C179.084 433.177 176.983 433.783 174 436" stroke="black"/>
<path d="M201.5 456C201.5 456 174.5 455 171.5 454C168.5 453 167 449 167 449H153L151.5 452.5C143.168 453.096 139.079 453.069 136 450.5" stroke="black"/>
<path d="M170 425V410H148V423.5L170 425Z" fill="white" stroke="white"/>
<path d="M171 409L170.5 425.5" stroke="black"/>
<path d="M147 409V424" stroke="black"/>
<path d="M94 159L91.5 111L114 110L117.5 160.5C117.437 191.572 116.479 207.849 112.5 234C106.347 243.908 91 253 91 253C91 253 78.087 242.423 75 234C85.259 205.656 89.847 189.382 94 159Z" fill="#DCAF52"/>
<path d="M22.5 72.0001C30.5285 70.0819 35.5837 69.1815 45.5005 69.5C46.4466 74.7463 46.4588 77.7229 47 82.9999C36.3298 82.6259 31.1884 81.9544 21.5005 80C19.0418 78.6228 18.2383 77.6808 18.5005 75.5C19.1792 73.127 20.1515 72.851 22.5 72.0001Z" fill="black" stroke="black"/>
<path d="M178.296 107.472C178.307 107.08 178.5 107.5 178.5 107.5L178.296 107.472C178.276 108.127 178.763 111.051 181.5 122C185.875 139.5 183.082 148.271 184 167C184.918 185.729 184.808 200.5 184 211C183.192 221.5 181.606 229.858 172.5 238C163.268 233.047 158.498 229 155.498 224C152.498 219 153.5 127.5 156.5 116.5C159.5 105.5 160.5 105 160.5 105L178.296 107.472Z" fill="#DCAF52"/>
<path d="M95.5 110.5C96.5959 128.733 99.3968 138.317 99.5 156C97.1351 185.822 92.3914 201.687 84 230C86.4403 237.345 88.6521 240.38 93.5 243C100.24 237.221 103.526 233.828 108.5 227.5C111.951 199.997 112.415 184.556 112 157C111.794 137.34 110.897 126.635 108 110" stroke="white" stroke-width="2"/>
<path d="M165 105.5C159.5 122.5 161.209 143.204 161.5 162.5C162.749 183.781 161.5 214 161.5 218C161.5 222 163.5 226.5 167 226C170.5 225.5 176.5 222.5 178 215.5C179.5 208.5 180.787 183.534 178 162.5C174.37 138.007 172.123 126.447 174.5 107" stroke="white" stroke-width="2"/>
<path d="M46.9991 82.8333L45.9991 65.8333C45.9991 65.8333 44.9991 62.5 45.9991 58.3333C46.9991 54.1667 49.4991 54.8333 49.4991 54.8333L46.9991 35.8333C46.9991 35.8333 46.4991 29.3333 50.9991 29.3333C55.4991 29.3333 58.9991 44.8333 58.9991 44.8333C58.9991 44.8333 58.9991 32.3333 62.4991 29.3333C65.9991 26.3333 67.9991 29.3333 67.9991 29.3333C71.3338 35.3197 71.6615 39.28 70.9991 46.8333C70.9991 46.8333 80.4991 48.8333 80.9991 51.8334C81.4991 54.8334 74.9991 78 71.9991 80.5C68.9991 83 46.9991 82.8333 46.9991 82.8333Z" fill="white"/>
<path d="M45.9991 65.8333L46.9991 82.8333C46.9991 82.8333 68.9991 83 71.9991 80.5C74.9991 78 81.4991 54.8334 80.9991 51.8334C80.4991 48.8333 70.9991 46.8333 70.9991 46.8333M45.9991 65.8333C45.9991 65.8333 44.9991 62.5 45.9991 58.3333C46.9991 54.1667 49.4991 54.8333 49.4991 54.8333M45.9991 65.8333C49.2255 69.765 51.1251 71.2474 54.4991 72.3333C57.8732 73.4192 57.4991 67.3333 57.4991 67.3333C55.929 61.4677 55.4373 57.5532 52.9991 55.8333C51.7127 54.9259 49.4991 54.8333 49.4991 54.8333M49.4991 54.8333L46.9991 35.8333C46.9991 35.8333 46.4991 29.3333 50.9991 29.3333C55.4991 29.3333 58.9991 44.8333 58.9991 44.8333C58.9991 44.8333 58.9991 32.3333 62.4991 29.3333C65.9991 26.3333 67.9991 29.3333 67.9991 29.3333C71.3338 35.3197 71.6615 39.28 70.9991 46.8333M70.9991 46.8333C70.9991 46.8333 63.9991 46.8333 63.4991 48.8333C62.9991 50.8333 62.4991 51.8333 63.4991 53.8333C64.4991 55.8333 67.9991 57.3333 67.9991 57.3333L60.4991 64.8333" stroke="black"/>
<path d="M261.5 125C259.484 125.679 240.151 112.726 239.5 108.5C238.849 104.274 245.146 92.6891 251.68 83.8579C242.119 68.5664 232.098 61.1335 216.1 48.3257C218.4 37.2269 224.737 31.8472 237.981 28.0472C247.015 42.9233 265.83 68.5274 267.827 68.4136C269.824 68.2998 280.679 56.6629 281.877 60.1003C283.074 63.5378 277.692 74.5429 277.692 74.5429C277.692 74.5429 281.704 74.6337 282.788 76.0744C283.871 77.5151 283.214 83.5622 283.214 83.5622L307.986 105.187C304.906 116.502 301.431 121.146 290.041 124.24L272.786 102.687C272.786 102.687 263.516 124.32 261.5 125Z" fill="white"/>
<path d="M272.786 102.687C272.786 102.687 263.516 124.32 261.5 125C259.484 125.679 240.151 112.726 239.5 108.5C238.849 104.274 245.146 92.6891 251.68 83.8579M272.786 102.687L290.041 124.24M272.786 102.687L262.104 91.0034M290.041 124.24C301.431 121.146 304.906 116.502 307.986 105.187M290.041 124.24C294.075 114.431 297.77 110.064 307.986 105.187M307.986 105.187L283.214 83.5622M283.214 83.5622C283.214 83.5622 283.871 77.5151 282.788 76.0744C281.704 74.6337 277.692 74.5429 277.692 74.5429M283.214 83.5622C283.604 88.9719 282.834 93.736 280.817 94.216C278.801 94.696 274.81 86.9514 273.901 87.0982M277.692 74.5429C277.692 74.5429 283.074 63.5378 281.877 60.1003C280.679 56.6629 269.824 68.2998 267.827 68.4136M277.692 74.5429C274.849 79.4194 273.572 81.6549 273.901 87.0982M277.692 74.5429C274.365 74.2548 276.018 74.2087 272.126 73.5391M267.827 68.4136C265.83 68.5274 247.015 42.9233 237.981 28.0472M267.827 68.4136L269.449 70.5056L272.126 73.5391M237.981 28.0472C224.737 31.8472 218.4 37.2269 216.1 48.3257M237.981 28.0472C237.316 26.9521 238.679 29.213 237.981 28.0472ZM237.981 28.0472C234.503 40.4355 229.516 44.7468 216.1 48.3257M216.1 48.3257C232.098 61.1335 242.119 68.5664 251.68 83.8579M251.68 83.8579L266.043 81.0357M266.043 81.0357C266.043 81.0357 269.122 80.5223 270.093 81.8064C271.043 83.0618 270.264 84.8015 269.822 85.8283C269.38 86.8552 265.963 88.4158 265.963 88.4158M266.043 81.0357L272.126 73.5391M262.803 103.256L262.489 97.7651L259.21 92.944L262.104 91.0034M262.104 91.0034L265.963 88.4158M265.963 88.4158C265.963 88.4158 268.694 92.4032 270.192 92.3178C271.689 92.2324 272.991 87.245 273.901 87.0982" stroke="black"/>
<path d="M269 113.009C270.004 112.598 289.568 126.197 289 129.152C288.432 132.107 273.827 130.083 262 125.009L269 113.009Z" fill="black" stroke="black"/>
<path d="M160.383 77.5C159.883 78 156.883 101.5 156.883 101.5C156.883 101.5 157.883 107.5 157.883 109C157.883 110.5 156.383 115.5 153.883 116C151.383 116.5 148.883 115 147.383 116C145.883 117 146.883 121 143.883 121.5C140.883 122 135.883 112.5 134.383 113C132.883 113.5 129.883 121 127.883 121C125.883 121 124.891 118.038 122.383 116C122.383 116 116.883 115 116.883 113C116.883 111 123.883 103.5 123.883 103.5V101.5V93.5C114.284 90.3265 106.883 82 106.383 77.5C105.883 73 107.082 54.9381 110.383 42L111.883 27C104.291 24.1853 96.3826 19.5 98.3826 15.5C100.383 11.5 120.024 3.04663 138.383 1C161.063 8.45274 184.882 23.5 184.383 27C183.883 30.5 174.883 32 174.883 32L168.383 34.5C167.399 43.2524 166.836 48.1951 165.883 56.5C175.286 57.6776 173.382 72 171.383 74C169.383 76 160.882 77 160.383 77.5Z" fill="white"/>
<path d="M156.883 101.5C156.883 101.5 159.883 78 160.383 77.5M156.883 101.5C151.501 107.814 147.61 109.921 138.383 111C130.644 110.304 127.181 109.071 123.883 104V103.5M156.883 101.5C156.883 101.5 157.883 107.5 157.883 109C157.883 110.5 156.383 115.5 153.883 116C151.383 116.5 148.883 115 147.383 116C145.883 117 146.883 121 143.883 121.5C140.883 122 135.883 112.5 134.383 113C132.883 113.5 129.883 121 127.883 121C125.883 121 124.891 118.038 122.383 116C122.383 116 116.883 115 116.883 113C116.883 111 123.883 103.5 123.883 103.5M160.383 77.5C160.882 77 169.383 76 171.383 74C173.382 72 175.286 57.6775 165.883 56.5M160.383 77.5L156.883 73.5M165.883 56.5C166.836 48.1951 167.399 43.2524 168.383 34.5L174.883 32M165.883 56.5C165.883 56.5 160.383 66.5 157.883 66.5C155.383 66.5 152.989 61.1293 152.883 56C152.883 56 150.883 59 147.883 58.5C144.883 58 146.359 48.7484 145.383 42.5C131.21 43.0652 123.543 42.9146 110.383 42M174.883 32C180.396 43.5061 178.327 57.7534 179.383 76M174.883 32C174.883 32 183.883 30.5 184.383 27C184.882 23.5 161.063 8.45274 138.383 1C120.024 3.04663 100.383 11.5 98.3826 15.5C96.3826 19.5 104.291 24.1853 111.883 27L110.383 42M110.383 42C107.082 54.9381 105.883 73 106.383 77.5C106.883 82 114.284 90.3265 123.883 93.5M123.883 93.5C133.941 92.1324 139.122 90.6544 147.383 86.5C146.292 92.9999 144.193 96.0353 138.383 100.5C133.441 102.444 129.544 102.914 123.883 101.5M123.883 93.5V103.5" stroke="black"/>
<path d="M145.066 42.4999C132.453 42.8495 124.816 42.7461 111.066 41.9999L112.566 26.9999C112.566 26.9999 100.022 24.5455 98.0662 17.4999C96.1107 10.4543 138.116 -0.610162 138.565 1.49988C140.065 -0.70376 187.441 22.8374 184.565 26.9999C180.308 31.2229 175.972 32.6108 168.066 34.9999C168.066 34.9999 166.564 54.9998 166.066 56.9999C165.568 59 159.568 67.5 157.566 66.9999C155.564 66.4998 153.425 61.0351 153.066 55.4999C151.443 57.892 149.873 58.5387 147.568 58C145.175 53.4547 145.583 49.363 145.066 42.4999Z" fill="black" stroke="black"/>
<path d="M148.518 86.0018C144.253 86.4769 134.326 91.8739 124 93.2498V101.533C129.473 103.029 137.404 101.336 140 100.5C142.596 99.6635 152.783 85.5267 148.518 86.0018Z" fill="black" stroke="black"/>
<circle cx="137" cy="74" r="7" fill="#F77FA2"/>
<circle cx="108" cy="74" r="7" fill="#F77FA2"/>
</svg>
