<svg width="151" height="147" viewBox="0 0 151 147" fill="none" xmlns="http://www.w3.org/2000/svg">
<ellipse cx="75.5" cy="73.5" rx="75.5" ry="73.5" fill="#DCAF52"/>
<path d="M69.5455 52.4545V99H64.0909L38.7273 62.4545H38.2727V99H32.6364V52.4545H38.0909L63.5455 89.0909H64V52.4545H69.5455ZM111.369 52.4545H117.006V83.2727C117.006 86.4545 116.256 89.2955 114.756 91.7955C113.271 94.2803 111.172 96.2424 108.46 97.6818C105.748 99.1061 102.566 99.8182 98.9148 99.8182C95.2633 99.8182 92.0814 99.1061 89.3693 97.6818C86.6572 96.2424 84.5511 94.2803 83.0511 91.7955C81.5663 89.2955 80.8239 86.4545 80.8239 83.2727V52.4545H86.4602V82.8182C86.4602 85.0909 86.9602 87.1136 87.9602 88.8864C88.9602 90.6439 90.3845 92.0303 92.233 93.0455C94.0966 94.0455 96.3239 94.5455 98.9148 94.5455C101.506 94.5455 103.733 94.0455 105.597 93.0455C107.46 92.0303 108.884 90.6439 109.869 88.8864C110.869 87.1136 111.369 85.0909 111.369 82.8182V52.4545Z" fill="white"/>
</svg>
